<?xml version="1.0" encoding="utf-8"?>
<!-- Generator: Adobe Illustrator 26.3.1, SVG Export Plug-In . SVG Version: 6.00 Build 0)  -->
<svg version="1.1" id="Capa_1" xmlns="http://www.w3.org/2000/svg" xmlns:xlink="http://www.w3.org/1999/xlink" x="0px" y="0px"
	 viewBox="0 0 512 512" style="enable-background:new 0 0 512 512;" xml:space="preserve">
<g>
	<path d="M123.26,314.95c0-38.65,0-77.29,0-115.94c0-1.52-0.01-3.04,0.07-4.56c0.14-2.82,2.07-3.97,4.62-2.77
		c0.58,0.27,1.1,0.65,1.64,0.99c17.81,11.17,35.62,22.35,53.44,33.5c3.15,1.97,5.89,4.35,8.27,7.22
		c8.48,10.21,16.99,20.41,25.58,30.53c1.77,2.08,2.52,4.22,2.51,6.95c-0.08,25.44-0.05,50.89-0.04,76.33c0,1.2,0.01,2.41,0.15,3.59
		c0.22,1.82,1.05,2.68,2.87,3.04c0.86,0.17,1.74,0.24,2.62,0.24c12.31-0.01,24.63-0.01,36.94-0.09c2.15-0.01,3.6,1.01,4.94,2.48
		c5.41,5.89,10.84,11.77,16.26,17.65c1.3,1.41,2.58,2.85,3.93,4.21c1.52,1.53,2.42,3.33,2.87,5.42
		c3.55,16.48,7.12,32.96,10.67,49.44c0.2,0.93,0.37,1.9,0.37,2.85c0,1.61-0.85,2.51-2.45,2.69c-0.87,0.1-1.76,0.08-2.64,0.08
		c-55.18,0-110.35,0-165.53,0c-1.36,0-2.72,0-4.08-0.06c-1.72-0.08-2.68-0.88-2.9-2.58c-0.16-1.18-0.13-2.39-0.13-3.59
		C123.26,393.37,123.26,354.16,123.26,314.95z"/>
	<path d="M243.12,247.6c0.04,1.28-0.18,2.44-1.46,3.05c-1.43,0.69-2.64,0.16-3.72-0.81c-4.29-3.85-8.57-7.7-12.85-11.55
		c-12.25-11.02-24.51-22.03-36.72-33.08c-2.11-1.91-4.41-3.39-7-4.53c-13.87-6.15-27.71-12.39-41.61-18.5
		c-2.17-0.96-3.21-2.4-3.53-4.66c-1.79-12.9-3.6-25.81-5.44-38.7c-2.16-15.19-4.35-30.38-6.51-45.57c-0.2-1.42-0.38-2.86-0.44-4.29
		c-0.09-1.8,0.53-2.73,2.32-3.09c2.82-0.57,5.67-0.96,8.51-1.37c11.15-1.59,22.3-3.17,33.45-4.74c11.94-1.68,23.89-3.33,35.84-5
		c3.56-0.5,7.11-1.05,10.68-1.46c2.99-0.35,3.91,0.37,4.35,3.38c1.34,9.34,2.62,18.68,3.94,28.02c1.36,9.66,2.73,19.31,4.09,28.96
		c1.36,9.66,2.72,19.31,4.08,28.97c1.51,10.76,3.01,21.53,4.53,32.29c1.34,9.5,2.72,18.99,4.07,28.48
		c1.06,7.44,2.09,14.88,3.14,22.32C242.94,246.33,243.03,246.96,243.12,247.6z"/>
	<path d="M312.19,402.02c0.17-5.83,0.26-11.67,0.56-17.5c0.16-3.16-0.58-5.94-2.11-8.69c-6.64-11.94-13.19-23.93-19.76-35.91
		c-0.54-0.98-1.13-1.95-1.5-3c-0.75-2.14,0.54-3.9,2.82-3.82c1.18,0.04,2.37,0.32,3.53,0.61c29.59,7.35,59.17,14.72,88.75,22.09
		c4.25,1.06,4.88,2.09,3.79,6.49c-4.78,19.3-9.58,38.59-14.38,57.88c-1.19,4.8-2.41,9.6-3.62,14.41c-0.14,0.54-0.26,1.09-0.44,1.62
		c-0.72,2.2-1.64,2.78-3.95,2.45c-0.79-0.11-1.56-0.32-2.34-0.51c-15.95-3.97-31.91-7.94-47.86-11.92c-0.23-0.06-0.47-0.09-0.7-0.15
		c-2.81-0.82-3.36-1.46-3.3-4.4C311.81,415.12,312.02,408.57,312.19,402.02z"/>
</g>
</svg>
