<?xml version="1.0" encoding="utf-8"?>
<!-- Generator: Adobe Illustrator 26.3.1, SVG Export Plug-In . SVG Version: 6.00 Build 0)  -->
<svg version="1.1" id="Capa_1" xmlns="http://www.w3.org/2000/svg" xmlns:xlink="http://www.w3.org/1999/xlink" x="0px" y="0px"
	 viewBox="0 0 512 512" style="enable-background:new 0 0 512 512;" xml:space="preserve">
<style type="text/css">
	.st0{fill:#E87217;}
</style>
<g>
	<g>
		<g>
			<path class="st0" d="M29.93,315.78h9.66v56.69h33.08v9.39H29.93V315.78z"/>
			<path class="st0" d="M80.06,381.85l29.16-68.9h0.64l28.98,68.9h-11.12l-21.14-53.59l6.93-4.65l-23.79,58.24H80.06z M97.83,357.06
				h23.61l3.19,8.29H94.91L97.83,357.06z"/>
			<path class="st0" d="M150.78,381.85v-66.08h18.32c6.56,0,12.15,0.99,16.77,2.96c4.62,1.98,8.34,4.62,11.16,7.93
				c2.83,3.31,4.88,6.97,6.15,10.98c1.28,4.01,1.91,8.02,1.91,12.03c0,4.92-0.87,9.36-2.6,13.31c-1.73,3.95-4.12,7.34-7.15,10.16
				c-3.04,2.83-6.53,4.98-10.48,6.47c-3.95,1.49-8.11,2.23-12.49,2.23H150.78z M160.44,372.47h10.03c3.58,0,6.88-0.52,9.89-1.55
				c3.01-1.03,5.62-2.55,7.84-4.56c2.22-2,3.92-4.47,5.1-7.38c1.19-2.92,1.78-6.23,1.78-9.93c0-4.13-0.65-7.7-1.96-10.71
				c-1.31-3.01-3.1-5.5-5.38-7.47c-2.28-1.97-4.8-3.43-7.56-4.38c-2.77-0.94-5.58-1.41-8.43-1.41h-11.3V372.47z"/>
			<path class="st0" d="M237.82,315.78c3.46,0,6.67,0.46,9.62,1.37c2.95,0.91,5.48,2.25,7.61,4.01c2.13,1.76,3.77,3.93,4.92,6.52
				c1.15,2.58,1.73,5.54,1.73,8.89c0,2.61-0.38,5.21-1.14,7.79c-0.76,2.58-2.02,4.91-3.78,6.97c-1.76,2.07-4.09,3.74-6.97,5.01
				c-2.89,1.28-6.46,1.91-10.71,1.91h-9.66v23.61h-9.66v-66.08H237.82z M239,348.77c2.43,0,4.48-0.38,6.15-1.14
				c1.67-0.76,2.98-1.73,3.92-2.92c0.94-1.18,1.61-2.46,2-3.83c0.39-1.37,0.59-2.66,0.59-3.87c0-1.21-0.2-2.51-0.59-3.87
				c-0.4-1.37-1.06-2.67-2-3.92c-0.94-1.25-2.2-2.25-3.78-3.01c-1.58-0.76-3.52-1.14-5.83-1.14h-10.03v23.7H239z M250.12,354.6
				l17.13,27.25h-11.3l-17.41-27.07L250.12,354.6z"/>
			<path class="st0" d="M280.38,315.78h9.66v66.08h-9.66V315.78z"/>
			<path class="st0" d="M308.72,315.78h9.66v56.69h33.08v9.39h-42.74V315.78z"/>
			<path class="st0" d="M365.78,315.78h9.66v56.69h33.08v9.39h-42.74V315.78z"/>
			<path class="st0" d="M418.73,348.86c0-4.56,0.87-8.87,2.6-12.94c1.73-4.07,4.13-7.69,7.2-10.85c3.07-3.16,6.64-5.62,10.71-7.38
				c4.07-1.76,8.44-2.64,13.12-2.64c4.68,0,9.05,0.88,13.12,2.64c4.07,1.76,7.67,4.22,10.8,7.38c3.13,3.16,5.57,6.78,7.34,10.85
				c1.76,4.07,2.64,8.38,2.64,12.94c0,4.68-0.88,9.05-2.64,13.12c-1.76,4.07-4.22,7.66-7.38,10.75c-3.16,3.1-6.76,5.51-10.8,7.25
				c-4.04,1.73-8.4,2.6-13.08,2.6c-4.68,0-9.05-0.85-13.12-2.55c-4.07-1.7-7.64-4.08-10.71-7.15c-3.07-3.07-5.47-6.64-7.2-10.71
				C419.59,358.1,418.73,353.66,418.73,348.86z M428.75,348.86c0,3.4,0.61,6.58,1.82,9.52c1.21,2.95,2.92,5.53,5.1,7.75
				c2.19,2.22,4.72,3.95,7.61,5.2c2.88,1.25,6,1.87,9.34,1.87c3.28,0,6.35-0.62,9.21-1.87c2.85-1.25,5.36-2.98,7.52-5.2
				c2.16-2.22,3.84-4.8,5.06-7.75c1.21-2.95,1.82-6.12,1.82-9.52c0-3.4-0.62-6.58-1.87-9.52c-1.25-2.95-2.93-5.54-5.06-7.79
				c-2.13-2.25-4.65-4.01-7.56-5.29c-2.92-1.28-6.05-1.91-9.39-1.91c-3.34,0-6.46,0.64-9.34,1.91c-2.89,1.28-5.41,3.04-7.57,5.29
				c-2.16,2.25-3.81,4.86-4.97,7.84C429.33,342.36,428.75,345.52,428.75,348.86z"/>
		</g>
	</g>
	<g>
		<g>
			<path class="st0" d="M91.37,427.39c-0.91,0.74-1.94,1.32-3.09,1.72c-1.15,0.4-2.35,0.61-3.6,0.61c-2.02,0-3.83-0.45-5.42-1.34
				c-1.59-0.89-2.84-2.12-3.75-3.67c-0.91-1.55-1.37-3.32-1.37-5.32c0-1.99,0.47-3.76,1.42-5.32c0.94-1.55,2.2-2.78,3.77-3.67
				c1.57-0.89,3.28-1.34,5.14-1.34c1.38,0,2.67,0.2,3.85,0.61c1.18,0.41,2.21,0.98,3.09,1.72l-1.27,1.62
				c-0.71-0.57-1.54-1.05-2.48-1.42c-0.95-0.37-1.96-0.56-3.04-0.56c-1.49,0-2.84,0.37-4.08,1.11c-1.23,0.74-2.21,1.75-2.94,3.01
				c-0.73,1.27-1.09,2.68-1.09,4.23c0,1.52,0.36,2.91,1.09,4.18c0.73,1.27,1.72,2.27,2.99,3.01c1.27,0.74,2.67,1.11,4.23,1.11
				c1.01,0,1.96-0.16,2.84-0.48c0.88-0.32,1.67-0.75,2.38-1.29L91.37,427.39z"/>
			<path class="st0" d="M96.08,419.29c0-1.92,0.46-3.68,1.39-5.27c0.93-1.59,2.19-2.84,3.8-3.77c1.6-0.93,3.4-1.39,5.39-1.39
				c2.03,0,3.83,0.46,5.42,1.39c1.59,0.93,2.84,2.19,3.75,3.77c0.91,1.59,1.37,3.34,1.37,5.27s-0.46,3.68-1.37,5.27
				c-0.91,1.59-2.17,2.84-3.77,3.77c-1.6,0.93-3.42,1.39-5.44,1.39c-1.99,0-3.78-0.45-5.37-1.34c-1.59-0.89-2.84-2.13-3.77-3.7
				C96.54,423.11,96.08,421.31,96.08,419.29z M98.46,419.34c0,1.55,0.36,2.96,1.09,4.23c0.73,1.27,1.7,2.27,2.94,3.01
				c1.23,0.74,2.61,1.11,4.13,1.11c1.52,0,2.89-0.37,4.13-1.11c1.23-0.74,2.21-1.75,2.94-3.01c0.73-1.27,1.09-2.67,1.09-4.23
				s-0.36-2.96-1.09-4.23c-0.73-1.27-1.71-2.28-2.94-3.04c-1.23-0.76-2.61-1.14-4.13-1.14c-1.55,0-2.95,0.4-4.18,1.19
				c-1.23,0.79-2.2,1.83-2.91,3.11C98.81,416.52,98.46,417.89,98.46,419.34z"/>
			<path class="st0" d="M122.36,419.29c0-1.92,0.46-3.68,1.39-5.27c0.93-1.59,2.19-2.84,3.8-3.77c1.6-0.93,3.4-1.39,5.39-1.39
				c2.03,0,3.83,0.46,5.42,1.39c1.59,0.93,2.84,2.19,3.75,3.77c0.91,1.59,1.37,3.34,1.37,5.27s-0.46,3.68-1.37,5.27
				c-0.91,1.59-2.17,2.84-3.77,3.77c-1.6,0.93-3.42,1.39-5.44,1.39c-1.99,0-3.78-0.45-5.37-1.34c-1.59-0.89-2.84-2.13-3.77-3.7
				C122.82,423.11,122.36,421.31,122.36,419.29z M124.73,419.34c0,1.55,0.36,2.96,1.09,4.23c0.73,1.27,1.7,2.27,2.94,3.01
				c1.23,0.74,2.61,1.11,4.13,1.11c1.52,0,2.89-0.37,4.13-1.11c1.23-0.74,2.21-1.75,2.94-3.01c0.73-1.27,1.09-2.67,1.09-4.23
				s-0.36-2.96-1.09-4.23c-0.73-1.27-1.71-2.28-2.94-3.04c-1.23-0.76-2.61-1.14-4.13-1.14c-1.55,0-2.95,0.4-4.18,1.19
				c-1.23,0.79-2.2,1.83-2.91,3.11C125.09,416.52,124.73,417.89,124.73,419.34z"/>
			<path class="st0" d="M161.49,429.72c-1.89,0-3.66-0.5-5.32-1.49c-1.65-1-2.87-2.29-3.65-3.87l0.41-0.86v15.34h-2.38v-29.47h2.13
				l0.25,6.48l-0.46-1.47c0.88-1.59,2.16-2.89,3.85-3.92c1.69-1.03,3.53-1.54,5.52-1.54c1.89,0,3.6,0.46,5.11,1.37
				s2.73,2.15,3.62,3.72c0.89,1.57,1.34,3.37,1.34,5.39c0,1.99-0.46,3.77-1.39,5.34c-0.93,1.57-2.18,2.79-3.75,3.67
				C165.22,429.28,163.45,429.72,161.49,429.72z M161.09,427.75c1.55,0,2.96-0.37,4.23-1.11c1.27-0.74,2.28-1.75,3.04-3.01
				c0.76-1.27,1.14-2.67,1.14-4.23c0-1.59-0.37-3.01-1.11-4.28c-0.74-1.27-1.73-2.27-2.96-3.01c-1.23-0.74-2.62-1.11-4.18-1.11
				c-1.49,0-2.84,0.34-4.05,1.01c-1.21,0.68-2.19,1.59-2.94,2.73c-0.74,1.15-1.18,2.45-1.32,3.9v1.62c0.1,1.38,0.53,2.65,1.29,3.8
				s1.74,2.05,2.94,2.71C158.36,427.42,159.67,427.75,161.09,427.75z"/>
			<path class="st0" d="M177.7,426.38c0.34-0.34,0.73-0.51,1.16-0.51c0.44,0,0.84,0.17,1.19,0.51c0.35,0.34,0.53,0.74,0.53,1.21
				c0,0.51-0.18,0.92-0.53,1.24c-0.35,0.32-0.75,0.48-1.19,0.48c-0.44,0-0.83-0.16-1.16-0.48c-0.34-0.32-0.51-0.73-0.51-1.24
				C177.19,427.12,177.36,426.72,177.7,426.38z"/>
			<path class="st0" d="M211.11,429.72c-1.89,0-3.6-0.43-5.14-1.29c-1.54-0.86-2.75-2.07-3.65-3.62c-0.89-1.55-1.34-3.36-1.34-5.42
				c0-2.19,0.47-4.08,1.42-5.65c0.94-1.57,2.23-2.77,3.85-3.6c1.62-0.83,3.46-1.24,5.52-1.24c1.75,0,3.42,0.52,4.99,1.57
				c1.57,1.05,2.69,2.36,3.37,3.95l-0.35,0.71l0.3-5.62h2.13v19.8h-2.38v-6.13l0.51,0.91c-0.24,0.67-0.64,1.34-1.22,2
				c-0.57,0.66-1.27,1.27-2.1,1.82c-0.83,0.56-1.74,1-2.73,1.32C213.28,429.56,212.23,429.72,211.11,429.72z M211.62,427.69
				c1.48,0,2.83-0.31,4.03-0.94c1.2-0.62,2.17-1.49,2.91-2.61c0.74-1.11,1.16-2.4,1.27-3.85v-2.84c-0.27-1.25-0.8-2.36-1.6-3.34
				c-0.79-0.98-1.76-1.75-2.91-2.33c-1.15-0.57-2.4-0.86-3.75-0.86c-1.49,0-2.85,0.35-4.1,1.04c-1.25,0.69-2.25,1.66-2.99,2.91
				c-0.74,1.25-1.11,2.72-1.11,4.41c0,1.55,0.37,2.96,1.11,4.23c0.74,1.27,1.75,2.28,3.01,3.04
				C208.76,427.31,210.13,427.69,211.62,427.69z"/>
			<path class="st0" d="M237.44,429.87c-1.86,0-3.34-0.55-4.46-1.65c-1.11-1.1-1.7-2.52-1.77-4.28v-14.43h2.38v13.72
				c0.07,1.28,0.48,2.35,1.24,3.19c0.76,0.84,1.9,1.3,3.42,1.37c1.28,0,2.48-0.34,3.59-1.01c1.11-0.67,2.02-1.6,2.71-2.76
				c0.69-1.17,1.04-2.49,1.04-3.97v-10.53h2.38v19.8h-2.13l-0.25-6.23l0.35,1.37c-0.34,1.01-0.94,1.93-1.8,2.76
				c-0.86,0.83-1.87,1.48-3.04,1.95C239.95,429.63,238.73,429.87,237.44,429.87z"/>
			<path class="st0" d="M265.09,429.72c-1.86,0-3.54-0.45-5.06-1.34c-1.52-0.89-2.73-2.13-3.62-3.72c-0.89-1.59-1.34-3.38-1.34-5.37
				c0-2.13,0.46-3.97,1.37-5.52c0.91-1.55,2.15-2.75,3.72-3.6c1.57-0.84,3.3-1.27,5.19-1.27s3.69,0.49,5.39,1.47
				c1.71,0.98,2.95,2.26,3.72,3.85l-0.41,1.11v-24.51h2.38v38.48H274v-6.08l0.51,1.11c-0.84,1.59-2.11,2.88-3.8,3.87
				C269.02,429.22,267.15,429.72,265.09,429.72z M265.7,427.64c1.52,0,2.89-0.33,4.1-0.99s2.19-1.55,2.94-2.68s1.17-2.41,1.27-3.82
				v-2.53c-0.24-1.28-0.76-2.43-1.57-3.44s-1.79-1.81-2.94-2.4c-1.15-0.59-2.41-0.89-3.8-0.89c-1.52,0-2.9,0.35-4.15,1.06
				s-2.24,1.69-2.99,2.94c-0.74,1.25-1.12,2.7-1.12,4.35c0,1.55,0.37,2.96,1.12,4.23c0.74,1.27,1.75,2.28,3.01,3.04
				C262.83,427.26,264.21,427.64,265.7,427.64z"/>
			<path class="st0" d="M284.94,402.23c0-0.47,0.19-0.87,0.56-1.19c0.37-0.32,0.78-0.48,1.22-0.48c0.47,0,0.88,0.16,1.21,0.48
				c0.34,0.32,0.51,0.72,0.51,1.19c0,0.51-0.17,0.92-0.51,1.24c-0.34,0.32-0.74,0.48-1.21,0.48c-0.44,0-0.84-0.17-1.22-0.51
				C285.12,403.1,284.94,402.7,284.94,402.23z M285.44,409.52h2.38v19.8h-2.38V409.52z"/>
			<path class="st0" d="M294.91,419.29c0-1.92,0.46-3.68,1.39-5.27c0.93-1.59,2.19-2.84,3.8-3.77c1.6-0.93,3.4-1.39,5.39-1.39
				c2.02,0,3.83,0.46,5.42,1.39c1.59,0.93,2.84,2.19,3.75,3.77s1.37,3.34,1.37,5.27s-0.46,3.68-1.37,5.27
				c-0.91,1.59-2.17,2.84-3.77,3.77c-1.6,0.93-3.42,1.39-5.44,1.39c-1.99,0-3.78-0.45-5.37-1.34c-1.59-0.89-2.84-2.13-3.77-3.7
				C295.37,423.11,294.91,421.31,294.91,419.29z M297.29,419.34c0,1.55,0.36,2.96,1.09,4.23c0.73,1.27,1.7,2.27,2.94,3.01
				c1.23,0.74,2.61,1.11,4.13,1.11c1.52,0,2.89-0.37,4.13-1.11c1.23-0.74,2.21-1.75,2.94-3.01c0.72-1.27,1.09-2.67,1.09-4.23
				s-0.36-2.96-1.09-4.23c-0.73-1.27-1.71-2.28-2.94-3.04c-1.23-0.76-2.61-1.14-4.13-1.14c-1.55,0-2.95,0.4-4.18,1.19
				c-1.23,0.79-2.2,1.83-2.91,3.11C297.64,416.52,297.29,417.89,297.29,419.34z"/>
			<path class="st0" d="M330.05,430.07l-10.03-20.56h2.78l8.25,17.97l-1.47-0.05l7.95-17.92h2.63l-9.82,20.56H330.05z"/>
			<path class="st0" d="M345.59,402.23c0-0.47,0.19-0.87,0.56-1.19c0.37-0.32,0.78-0.48,1.22-0.48c0.47,0,0.88,0.16,1.21,0.48
				c0.34,0.32,0.51,0.72,0.51,1.19c0,0.51-0.17,0.92-0.51,1.24c-0.34,0.32-0.74,0.48-1.21,0.48c-0.44,0-0.84-0.17-1.22-0.51
				C345.78,403.1,345.59,402.7,345.59,402.23z M346.1,409.52h2.38v19.8h-2.38V409.52z"/>
			<path class="st0" d="M362.15,429.72c-1.15,0-2.35-0.21-3.6-0.63c-1.25-0.42-2.26-1.11-3.04-2.05l1.11-1.57
				c0.67,0.71,1.48,1.27,2.41,1.7c0.93,0.42,1.92,0.63,2.96,0.63c0.78,0,1.51-0.11,2.2-0.33s1.26-0.6,1.7-1.14s0.66-1.27,0.66-2.18
				c0-0.94-0.26-1.67-0.78-2.18c-0.52-0.51-1.18-0.92-1.97-1.24c-0.79-0.32-1.63-0.62-2.51-0.89c-1.45-0.47-2.64-1.11-3.57-1.92
				c-0.93-0.81-1.39-1.96-1.39-3.44c0-1.08,0.26-2.02,0.79-2.83c0.52-0.81,1.24-1.44,2.15-1.9c0.91-0.46,1.94-0.68,3.09-0.68
				c1.05,0,2.08,0.17,3.11,0.51c1.03,0.34,1.97,0.91,2.81,1.72l-1.06,1.67c-0.54-0.74-1.26-1.25-2.15-1.52
				c-0.89-0.27-1.68-0.42-2.35-0.46c-0.57,0-1.17,0.12-1.8,0.35c-0.62,0.24-1.15,0.58-1.57,1.04c-0.42,0.46-0.63,1.05-0.63,1.8
				c0,0.78,0.22,1.41,0.66,1.9c0.44,0.49,1,0.89,1.7,1.19c0.69,0.3,1.41,0.59,2.15,0.86c0.98,0.3,1.9,0.67,2.76,1.09
				c0.86,0.42,1.57,0.98,2.13,1.67c0.56,0.69,0.83,1.61,0.83,2.76s-0.25,2.19-0.76,3.11c-0.51,0.93-1.26,1.65-2.25,2.18
				C364.93,429.46,363.67,429.72,362.15,429.72z"/>
			<path class="st0" d="M382.35,429.87c-1.86,0-3.34-0.55-4.46-1.65c-1.11-1.1-1.71-2.52-1.77-4.28v-14.43h2.38v13.72
				c0.07,1.28,0.48,2.35,1.24,3.19c0.76,0.84,1.9,1.3,3.42,1.37c1.28,0,2.48-0.34,3.6-1.01c1.11-0.67,2.02-1.6,2.71-2.76
				c0.69-1.17,1.04-2.49,1.04-3.97v-10.53h2.38v19.8h-2.13l-0.25-6.23l0.35,1.37c-0.34,1.01-0.94,1.93-1.8,2.76
				c-0.86,0.83-1.87,1.48-3.04,1.95C384.86,429.63,383.63,429.87,382.35,429.87z"/>
			<path class="st0" d="M410.1,429.72c-1.89,0-3.6-0.43-5.14-1.29c-1.54-0.86-2.75-2.07-3.65-3.62c-0.89-1.55-1.34-3.36-1.34-5.42
				c0-2.19,0.47-4.08,1.42-5.65c0.94-1.57,2.23-2.77,3.85-3.6c1.62-0.83,3.46-1.24,5.52-1.24c1.75,0,3.42,0.52,4.99,1.57
				c1.57,1.05,2.69,2.36,3.37,3.95l-0.35,0.71l0.3-5.62h2.13v19.8h-2.38v-6.13l0.51,0.91c-0.24,0.67-0.64,1.34-1.21,2
				c-0.57,0.66-1.27,1.27-2.1,1.82c-0.83,0.56-1.74,1-2.73,1.32S411.21,429.72,410.1,429.72z M410.6,427.69
				c1.49,0,2.83-0.31,4.03-0.94s2.17-1.49,2.91-2.61c0.74-1.11,1.16-2.4,1.27-3.85v-2.84c-0.27-1.25-0.8-2.36-1.59-3.34
				c-0.79-0.98-1.76-1.75-2.91-2.33c-1.15-0.57-2.4-0.86-3.75-0.86c-1.49,0-2.85,0.35-4.1,1.04c-1.25,0.69-2.25,1.66-2.99,2.91
				c-0.74,1.25-1.11,2.72-1.11,4.41c0,1.55,0.37,2.96,1.11,4.23c0.74,1.27,1.75,2.28,3.01,3.04
				C407.74,427.31,409.12,427.69,410.6,427.69z"/>
			<path class="st0" d="M430.2,390.83h2.38v38.48h-2.38V390.83z"/>
		</g>
	</g>
</g>
<g>
	<path class="st0" d="M177.01,214.75c0-23,0-45.99,0-68.99c0-0.9,0-1.81,0.04-2.71c0.08-1.68,1.23-2.36,2.75-1.65
		c0.34,0.16,0.66,0.39,0.98,0.59c10.6,6.65,21.2,13.3,31.8,19.94c1.87,1.17,3.51,2.59,4.92,4.29c5.05,6.08,10.11,12.15,15.22,18.17
		c1.05,1.24,1.5,2.51,1.5,4.14c-0.05,15.14-0.03,30.28-0.02,45.42c0,0.71,0.01,1.43,0.09,2.14c0.13,1.08,0.62,1.59,1.71,1.81
		c0.51,0.1,1.04,0.14,1.56,0.14c7.33-0.01,14.66-0.01,21.98-0.05c1.28-0.01,2.14,0.6,2.94,1.47c3.22,3.51,6.45,7,9.68,10.5
		c0.77,0.84,1.53,1.7,2.34,2.5c0.91,0.91,1.44,1.98,1.71,3.23c2.11,9.81,4.24,19.61,6.35,29.42c0.12,0.56,0.22,1.13,0.22,1.69
		c0,0.96-0.5,1.49-1.46,1.6c-0.52,0.06-1.05,0.05-1.57,0.05c-32.83,0-65.67,0-98.5,0c-0.81,0-1.62,0-2.43-0.04
		c-1.02-0.05-1.59-0.52-1.73-1.53c-0.09-0.7-0.07-1.43-0.08-2.14C177.01,261.4,177.01,238.08,177.01,214.75z"/>
	<path class="st0" d="M248.33,174.66c0.02,0.76-0.11,1.45-0.87,1.82c-0.85,0.41-1.57,0.09-2.21-0.48c-2.55-2.29-5.1-4.58-7.64-6.87
		c-7.29-6.56-14.58-13.11-21.85-19.69c-1.25-1.13-2.63-2.02-4.16-2.7c-8.26-3.66-16.49-7.37-24.76-11.01
		c-1.29-0.57-1.91-1.43-2.1-2.78c-1.06-7.68-2.14-15.36-3.24-23.03c-1.28-9.04-2.59-18.08-3.88-27.12c-0.12-0.85-0.22-1.7-0.26-2.56
		c-0.05-1.07,0.32-1.63,1.38-1.84c1.68-0.34,3.37-0.57,5.06-0.81c6.63-0.95,13.27-1.89,19.91-2.82c7.11-1,14.22-1.98,21.33-2.97
		c2.12-0.3,4.23-0.62,6.36-0.87c1.78-0.21,2.33,0.22,2.59,2.01c0.8,5.56,1.56,11.12,2.34,16.67c0.81,5.75,1.63,11.49,2.44,17.24
		c0.81,5.75,1.62,11.49,2.43,17.24c0.9,6.41,1.79,12.81,2.69,19.22c0.8,5.65,1.62,11.3,2.42,16.95c0.63,4.43,1.25,8.85,1.87,13.28
		C248.23,173.91,248.28,174.29,248.33,174.66z"/>
	<path class="st0" d="M289.44,266.55c0.1-3.47,0.15-6.94,0.33-10.41c0.1-1.88-0.35-3.54-1.26-5.17c-3.95-7.1-7.85-14.24-11.76-21.37
		c-0.32-0.58-0.67-1.16-0.89-1.78c-0.45-1.27,0.32-2.32,1.68-2.27c0.7,0.02,1.41,0.19,2.1,0.36c17.61,4.38,35.21,8.76,52.81,13.14
		c2.53,0.63,2.9,1.25,2.25,3.86c-2.85,11.48-5.7,22.96-8.56,34.44c-0.71,2.86-1.43,5.71-2.15,8.57c-0.08,0.32-0.16,0.65-0.26,0.96
		c-0.43,1.31-0.97,1.66-2.35,1.46c-0.47-0.07-0.93-0.19-1.39-0.3c-9.49-2.36-18.99-4.73-28.48-7.09c-0.14-0.03-0.28-0.05-0.42-0.09
		c-1.67-0.49-2-0.87-1.97-2.62C289.21,274.35,289.33,270.45,289.44,266.55z"/>
</g>
</svg>
