<svg xmlns="http://www.w3.org/2000/svg" viewBox="0 0 265.48 365.61"><defs><style>.cls-1{fill:#e87217;}</style></defs><title>Recurso 1</title><g id="Capa_2" data-name="Capa 2"><g id="Capa_1-2" data-name="Capa 1"><path class="cls-1" d="M0,241.76V125.82c0-1.52,0-3,.07-4.56.14-2.82,2.07-4,4.62-2.77a16.23,16.23,0,0,1,1.64,1Q33,136.24,59.77,153A34.14,34.14,0,0,1,68,160.2q12.74,15.31,25.58,30.53a10,10,0,0,1,2.52,7c-.08,25.45,0,50.89,0,76.34a30.79,30.79,0,0,0,.15,3.59,3.11,3.11,0,0,0,2.87,3,13.44,13.44,0,0,0,2.62.23c12.31,0,24.62,0,36.94-.09a6.37,6.37,0,0,1,4.94,2.48q8.12,8.84,16.26,17.65c1.3,1.41,2.58,2.85,3.93,4.2a10.53,10.53,0,0,1,2.87,5.43Q172,335.27,177.36,360a13.65,13.65,0,0,1,.37,2.84,2.45,2.45,0,0,1-2.45,2.69,23.21,23.21,0,0,1-2.64.09H7.11c-1.36,0-2.72,0-4.08-.06A2.69,2.69,0,0,1,.13,363,26.81,26.81,0,0,1,0,359.38Z"/><path class="cls-1" d="M119.85,174.4c0,1.28-.18,2.44-1.46,3-1.43.7-2.64.16-3.72-.81q-6.42-5.76-12.84-11.55Q83.46,148.56,65.11,132a26,26,0,0,0-7-4.54C44.24,121.32,30.4,115.09,16.5,109A5.43,5.43,0,0,1,13,104.31Q10.29,85,7.54,65.61,4.3,42.81,1,20c-.2-1.42-.37-2.85-.44-4.29-.08-1.8.53-2.73,2.33-3.09,2.81-.57,5.66-1,8.51-1.37L44.87,6.54Q62.8,4,80.71,1.54c3.56-.49,7.11-1,10.68-1.46,3-.35,3.92.37,4.35,3.38,1.34,9.34,2.62,18.68,3.94,28q2,14.48,4.09,29l4.08,29q2.27,16.14,4.53,32.29c1.34,9.5,2.72,19,4.07,28.49q1.58,11.15,3.14,22.31C119.68,173.14,119.77,173.77,119.85,174.4Z"/><path class="cls-1" d="M188.93,328.82c.18-5.83.26-11.67.56-17.5a15.67,15.67,0,0,0-2.11-8.69c-6.64-11.93-13.19-23.93-19.76-35.9a20.49,20.49,0,0,1-1.5-3,2.7,2.7,0,0,1,2.82-3.82,17.17,17.17,0,0,1,3.53.61q44.37,11,88.75,22.09c4.25,1.06,4.88,2.09,3.79,6.49Q257.83,318,250.62,347q-1.78,7.2-3.61,14.4c-.14.54-.26,1.09-.44,1.62-.71,2.2-1.63,2.78-3.94,2.45a23.21,23.21,0,0,1-2.34-.51L192.43,353c-.23,0-.47-.08-.7-.15-2.81-.82-3.36-1.46-3.31-4.4C188.55,341.93,188.76,335.37,188.93,328.82Z"/></g></g></svg>